<svg width="518" height="488" viewBox="0 0 518 488" fill="none" xmlns="http://www.w3.org/2000/svg">
<path d="M518 91L3.85046e-05 91" stroke="url(#paint0_linear_501_943)" stroke-opacity="0.2"/>
<path d="M518 169L3.85046e-05 169" stroke="url(#paint1_linear_501_943)" stroke-opacity="0.2"/>
<path d="M518 247L3.85046e-05 247" stroke="url(#paint2_linear_501_943)" stroke-opacity="0.2"/>
<path d="M518 325L3.85046e-05 325" stroke="url(#paint3_linear_501_943)" stroke-opacity="0.2"/>
<path d="M518 403L3.85046e-05 403" stroke="url(#paint4_linear_501_943)" stroke-opacity="0.2"/>
<path d="M518 130L3.85046e-05 130" stroke="url(#paint5_linear_501_943)" stroke-opacity="0.2"/>
<path d="M518 208L3.85046e-05 208" stroke="url(#paint6_linear_501_943)" stroke-opacity="0.2"/>
<path d="M518 286L3.85046e-05 286" stroke="url(#paint7_linear_501_943)" stroke-opacity="0.2"/>
<path d="M518 364L3.85046e-05 364" stroke="url(#paint8_linear_501_943)" stroke-opacity="0.2"/>
<path d="M518 442L3.85046e-05 442" stroke="url(#paint9_linear_501_943)" stroke-opacity="0.2"/>
<path d="M494 488L494 5.19752e-05" stroke="url(#paint10_linear_501_943)" stroke-opacity="0.2"/>
<path d="M416 488L416 5.19752e-05" stroke="url(#paint11_linear_501_943)" stroke-opacity="0.2"/>
<path d="M338 488L338 5.19752e-05" stroke="url(#paint12_linear_501_943)" stroke-opacity="0.2"/>
<path d="M260 488L260 5.19752e-05" stroke="url(#paint13_linear_501_943)" stroke-opacity="0.2"/>
<path d="M182 488L182 5.19752e-05" stroke="url(#paint14_linear_501_943)" stroke-opacity="0.2"/>
<path d="M455 488L455 5.19752e-05" stroke="url(#paint15_linear_501_943)" stroke-opacity="0.2"/>
<path d="M377 488L377 5.19752e-05" stroke="url(#paint16_linear_501_943)" stroke-opacity="0.2"/>
<path d="M299 488L299 5.19752e-05" stroke="url(#paint17_linear_501_943)" stroke-opacity="0.2"/>
<path d="M221 488L221 5.19752e-05" stroke="url(#paint18_linear_501_943)" stroke-opacity="0.2"/>
<path d="M143 488L143 5.19752e-05" stroke="url(#paint19_linear_501_943)" stroke-opacity="0.2"/>
<defs>
<linearGradient id="paint0_linear_501_943" x1="518" y1="91.5" x2="3.08534e-05" y2="91.5" gradientUnits="userSpaceOnUse">
<stop stop-color="white"/>
<stop offset="1" stop-color="white" stop-opacity="0"/>
</linearGradient>
<linearGradient id="paint1_linear_501_943" x1="518" y1="169.5" x2="3.08534e-05" y2="169.5" gradientUnits="userSpaceOnUse">
<stop stop-color="white"/>
<stop offset="1" stop-color="white" stop-opacity="0"/>
</linearGradient>
<linearGradient id="paint2_linear_501_943" x1="518" y1="247.5" x2="3.08534e-05" y2="247.5" gradientUnits="userSpaceOnUse">
<stop stop-color="white"/>
<stop offset="1" stop-color="white" stop-opacity="0"/>
</linearGradient>
<linearGradient id="paint3_linear_501_943" x1="518" y1="325.5" x2="3.08534e-05" y2="325.5" gradientUnits="userSpaceOnUse">
<stop stop-color="white"/>
<stop offset="1" stop-color="white" stop-opacity="0"/>
</linearGradient>
<linearGradient id="paint4_linear_501_943" x1="518" y1="403.5" x2="3.08534e-05" y2="403.5" gradientUnits="userSpaceOnUse">
<stop stop-color="white"/>
<stop offset="1" stop-color="white" stop-opacity="0"/>
</linearGradient>
<linearGradient id="paint5_linear_501_943" x1="518" y1="130.5" x2="3.08534e-05" y2="130.5" gradientUnits="userSpaceOnUse">
<stop stop-color="white"/>
<stop offset="1" stop-color="white" stop-opacity="0"/>
</linearGradient>
<linearGradient id="paint6_linear_501_943" x1="518" y1="208.5" x2="3.08534e-05" y2="208.5" gradientUnits="userSpaceOnUse">
<stop stop-color="white"/>
<stop offset="1" stop-color="white" stop-opacity="0"/>
</linearGradient>
<linearGradient id="paint7_linear_501_943" x1="518" y1="286.5" x2="3.08534e-05" y2="286.5" gradientUnits="userSpaceOnUse">
<stop stop-color="white"/>
<stop offset="1" stop-color="white" stop-opacity="0"/>
</linearGradient>
<linearGradient id="paint8_linear_501_943" x1="518" y1="364.5" x2="3.08534e-05" y2="364.5" gradientUnits="userSpaceOnUse">
<stop stop-color="white"/>
<stop offset="1" stop-color="white" stop-opacity="0"/>
</linearGradient>
<linearGradient id="paint9_linear_501_943" x1="518" y1="442.5" x2="3.08534e-05" y2="442.5" gradientUnits="userSpaceOnUse">
<stop stop-color="white"/>
<stop offset="1" stop-color="white" stop-opacity="0"/>
</linearGradient>
<linearGradient id="paint10_linear_501_943" x1="493.5" y1="488" x2="493.5" y2="2.90434e-05" gradientUnits="userSpaceOnUse">
<stop stop-color="white"/>
<stop offset="1" stop-color="white" stop-opacity="0"/>
</linearGradient>
<linearGradient id="paint11_linear_501_943" x1="415.5" y1="488" x2="415.5" y2="2.90434e-05" gradientUnits="userSpaceOnUse">
<stop stop-color="white"/>
<stop offset="1" stop-color="white" stop-opacity="0"/>
</linearGradient>
<linearGradient id="paint12_linear_501_943" x1="337.5" y1="488" x2="337.5" y2="2.90434e-05" gradientUnits="userSpaceOnUse">
<stop stop-color="white"/>
<stop offset="1" stop-color="white" stop-opacity="0"/>
</linearGradient>
<linearGradient id="paint13_linear_501_943" x1="259.5" y1="488" x2="259.5" y2="2.90434e-05" gradientUnits="userSpaceOnUse">
<stop stop-color="white"/>
<stop offset="1" stop-color="white" stop-opacity="0"/>
</linearGradient>
<linearGradient id="paint14_linear_501_943" x1="181.5" y1="488" x2="181.5" y2="2.90434e-05" gradientUnits="userSpaceOnUse">
<stop stop-color="white"/>
<stop offset="1" stop-color="white" stop-opacity="0"/>
</linearGradient>
<linearGradient id="paint15_linear_501_943" x1="454.5" y1="488" x2="454.5" y2="2.90434e-05" gradientUnits="userSpaceOnUse">
<stop stop-color="white"/>
<stop offset="1" stop-color="white" stop-opacity="0"/>
</linearGradient>
<linearGradient id="paint16_linear_501_943" x1="376.5" y1="488" x2="376.5" y2="2.90434e-05" gradientUnits="userSpaceOnUse">
<stop stop-color="white"/>
<stop offset="1" stop-color="white" stop-opacity="0"/>
</linearGradient>
<linearGradient id="paint17_linear_501_943" x1="298.5" y1="488" x2="298.5" y2="2.90434e-05" gradientUnits="userSpaceOnUse">
<stop stop-color="white"/>
<stop offset="1" stop-color="white" stop-opacity="0"/>
</linearGradient>
<linearGradient id="paint18_linear_501_943" x1="220.5" y1="488" x2="220.5" y2="2.90434e-05" gradientUnits="userSpaceOnUse">
<stop stop-color="white"/>
<stop offset="1" stop-color="white" stop-opacity="0"/>
</linearGradient>
<linearGradient id="paint19_linear_501_943" x1="142.5" y1="488" x2="142.5" y2="2.90434e-05" gradientUnits="userSpaceOnUse">
<stop stop-color="white"/>
<stop offset="1" stop-color="white" stop-opacity="0"/>
</linearGradient>
</defs>
</svg>
